<mxfile host="app.diagrams.net" agent="Mozilla/5.0 (X11; Linux x86_64; rv:132.0) Gecko/20100101 Firefox/132.0" version="24.8.4">
  <diagram name="Page-1" id="HIBPYzv-U8cnvhDh429u">
    <mxGraphModel dx="1609" dy="1484" grid="1" gridSize="10" guides="1" tooltips="1" connect="1" arrows="1" fold="1" page="1" pageScale="1" pageWidth="850" pageHeight="1100" math="0" shadow="0">
      <root>
        <mxCell id="0" />
        <mxCell id="1" parent="0" />
        <mxCell id="P24lYg7XcosK2m3u0wJf-16" style="edgeStyle=orthogonalEdgeStyle;rounded=0;orthogonalLoop=1;jettySize=auto;html=1;exitX=0;exitY=0.5;exitDx=0;exitDy=0;entryX=1;entryY=0.5;entryDx=0;entryDy=0;shape=link;" parent="1" source="P24lYg7XcosK2m3u0wJf-2" target="P24lYg7XcosK2m3u0wJf-15" edge="1">
          <mxGeometry relative="1" as="geometry" />
        </mxCell>
        <mxCell id="P24lYg7XcosK2m3u0wJf-21" style="edgeStyle=orthogonalEdgeStyle;rounded=0;orthogonalLoop=1;jettySize=auto;html=1;exitX=0.5;exitY=1;exitDx=0;exitDy=0;entryX=0.5;entryY=0;entryDx=0;entryDy=0;shape=link;" parent="1" source="P24lYg7XcosK2m3u0wJf-2" target="P24lYg7XcosK2m3u0wJf-3" edge="1">
          <mxGeometry relative="1" as="geometry" />
        </mxCell>
        <mxCell id="P24lYg7XcosK2m3u0wJf-37" style="edgeStyle=orthogonalEdgeStyle;rounded=0;orthogonalLoop=1;jettySize=auto;html=1;exitX=1;exitY=0.5;exitDx=0;exitDy=0;entryX=0;entryY=0.5;entryDx=0;entryDy=0;" parent="1" source="P24lYg7XcosK2m3u0wJf-2" target="P24lYg7XcosK2m3u0wJf-33" edge="1">
          <mxGeometry relative="1" as="geometry" />
        </mxCell>
        <mxCell id="P24lYg7XcosK2m3u0wJf-2" value="&lt;font style=&quot;font-size: 20px;&quot;&gt;Flight&lt;/font&gt;" style="whiteSpace=wrap;html=1;align=center;" parent="1" vertex="1">
          <mxGeometry x="400" y="120" width="100" height="40" as="geometry" />
        </mxCell>
        <mxCell id="P24lYg7XcosK2m3u0wJf-3" value="Flight Details" style="shape=rhombus;perimeter=rhombusPerimeter;whiteSpace=wrap;html=1;align=center;" parent="1" vertex="1">
          <mxGeometry x="390" y="380" width="120" height="60" as="geometry" />
        </mxCell>
        <mxCell id="P24lYg7XcosK2m3u0wJf-22" style="edgeStyle=orthogonalEdgeStyle;rounded=0;orthogonalLoop=1;jettySize=auto;html=1;exitX=1;exitY=0.5;exitDx=0;exitDy=0;entryX=0;entryY=0.5;entryDx=0;entryDy=0;" parent="1" source="P24lYg7XcosK2m3u0wJf-4" target="P24lYg7XcosK2m3u0wJf-3" edge="1">
          <mxGeometry relative="1" as="geometry" />
        </mxCell>
        <mxCell id="P24lYg7XcosK2m3u0wJf-4" value="&lt;font style=&quot;font-size: 19px;&quot;&gt;Airplane&lt;/font&gt;" style="whiteSpace=wrap;html=1;align=center;" parent="1" vertex="1">
          <mxGeometry x="220" y="390" width="100" height="40" as="geometry" />
        </mxCell>
        <mxCell id="P24lYg7XcosK2m3u0wJf-32" style="edgeStyle=orthogonalEdgeStyle;rounded=0;orthogonalLoop=1;jettySize=auto;html=1;exitX=0.25;exitY=1;exitDx=0;exitDy=0;entryX=0.5;entryY=0;entryDx=0;entryDy=0;" parent="1" source="P24lYg7XcosK2m3u0wJf-5" target="P24lYg7XcosK2m3u0wJf-29" edge="1">
          <mxGeometry relative="1" as="geometry">
            <Array as="points">
              <mxPoint x="775" y="710" />
              <mxPoint x="710" y="710" />
            </Array>
          </mxGeometry>
        </mxCell>
        <mxCell id="P24lYg7XcosK2m3u0wJf-154" style="edgeStyle=orthogonalEdgeStyle;rounded=0;orthogonalLoop=1;jettySize=auto;html=1;exitX=0;exitY=0.5;exitDx=0;exitDy=0;entryX=1;entryY=0.5;entryDx=0;entryDy=0;shape=link;" parent="1" source="P24lYg7XcosK2m3u0wJf-5" target="P24lYg7XcosK2m3u0wJf-150" edge="1">
          <mxGeometry relative="1" as="geometry" />
        </mxCell>
        <mxCell id="P24lYg7XcosK2m3u0wJf-157" style="edgeStyle=orthogonalEdgeStyle;rounded=0;orthogonalLoop=1;jettySize=auto;html=1;exitX=0.25;exitY=0;exitDx=0;exitDy=0;entryX=1;entryY=0.5;entryDx=0;entryDy=0;" parent="1" source="P24lYg7XcosK2m3u0wJf-5" target="P24lYg7XcosK2m3u0wJf-3" edge="1">
          <mxGeometry relative="1" as="geometry">
            <Array as="points">
              <mxPoint x="775" y="580" />
              <mxPoint x="560" y="580" />
              <mxPoint x="560" y="410" />
            </Array>
          </mxGeometry>
        </mxCell>
        <mxCell id="P24lYg7XcosK2m3u0wJf-213" style="edgeStyle=orthogonalEdgeStyle;rounded=0;orthogonalLoop=1;jettySize=auto;html=1;exitX=1;exitY=0.75;exitDx=0;exitDy=0;entryX=0.5;entryY=1;entryDx=0;entryDy=0;" parent="1" source="P24lYg7XcosK2m3u0wJf-5" target="P24lYg7XcosK2m3u0wJf-25" edge="1">
          <mxGeometry relative="1" as="geometry" />
        </mxCell>
        <mxCell id="P24lYg7XcosK2m3u0wJf-214" style="edgeStyle=orthogonalEdgeStyle;rounded=0;orthogonalLoop=1;jettySize=auto;html=1;exitX=1;exitY=0.25;exitDx=0;exitDy=0;entryX=0.5;entryY=0;entryDx=0;entryDy=0;" parent="1" source="P24lYg7XcosK2m3u0wJf-5" target="P24lYg7XcosK2m3u0wJf-25" edge="1">
          <mxGeometry relative="1" as="geometry" />
        </mxCell>
        <mxCell id="P24lYg7XcosK2m3u0wJf-5" value="&lt;font style=&quot;font-size: 12px;&quot;&gt;Flight_Employee&lt;/font&gt;" style="whiteSpace=wrap;html=1;align=center;fontSize=18;" parent="1" vertex="1">
          <mxGeometry x="750" y="600" width="100" height="40" as="geometry" />
        </mxCell>
        <mxCell id="P24lYg7XcosK2m3u0wJf-24" style="edgeStyle=orthogonalEdgeStyle;rounded=0;orthogonalLoop=1;jettySize=auto;html=1;exitX=0.5;exitY=0;exitDx=0;exitDy=0;entryX=0.5;entryY=1;entryDx=0;entryDy=0;" parent="1" source="P24lYg7XcosK2m3u0wJf-6" target="P24lYg7XcosK2m3u0wJf-3" edge="1">
          <mxGeometry relative="1" as="geometry" />
        </mxCell>
        <mxCell id="P24lYg7XcosK2m3u0wJf-152" style="edgeStyle=orthogonalEdgeStyle;rounded=0;orthogonalLoop=1;jettySize=auto;html=1;exitX=1;exitY=0.5;exitDx=0;exitDy=0;entryX=0;entryY=0.5;entryDx=0;entryDy=0;shape=link;" parent="1" source="P24lYg7XcosK2m3u0wJf-6" target="P24lYg7XcosK2m3u0wJf-150" edge="1">
          <mxGeometry relative="1" as="geometry" />
        </mxCell>
        <mxCell id="8x9esafujQY3TYrW2D4K-3" style="edgeStyle=orthogonalEdgeStyle;rounded=0;orthogonalLoop=1;jettySize=auto;html=1;exitX=0.25;exitY=0;exitDx=0;exitDy=0;entryX=0.5;entryY=1;entryDx=0;entryDy=0;shape=link;" parent="1" source="P24lYg7XcosK2m3u0wJf-6" target="8x9esafujQY3TYrW2D4K-2" edge="1">
          <mxGeometry relative="1" as="geometry" />
        </mxCell>
        <mxCell id="P24lYg7XcosK2m3u0wJf-6" value="&lt;font style=&quot;font-size: 19px;&quot;&gt;Airline&lt;/font&gt;" style="whiteSpace=wrap;html=1;align=center;" parent="1" vertex="1">
          <mxGeometry x="160" y="600" width="100" height="40" as="geometry" />
        </mxCell>
        <mxCell id="P24lYg7XcosK2m3u0wJf-19" style="edgeStyle=orthogonalEdgeStyle;rounded=0;orthogonalLoop=1;jettySize=auto;html=1;exitX=0.5;exitY=1;exitDx=0;exitDy=0;entryX=0.5;entryY=1;entryDx=0;entryDy=0;" parent="1" source="P24lYg7XcosK2m3u0wJf-14" target="P24lYg7XcosK2m3u0wJf-15" edge="1">
          <mxGeometry relative="1" as="geometry">
            <Array as="points">
              <mxPoint x="110" y="200" />
              <mxPoint x="280" y="200" />
            </Array>
          </mxGeometry>
        </mxCell>
        <mxCell id="P24lYg7XcosK2m3u0wJf-20" style="edgeStyle=orthogonalEdgeStyle;rounded=0;orthogonalLoop=1;jettySize=auto;html=1;exitX=0.5;exitY=0;exitDx=0;exitDy=0;entryX=0.5;entryY=0;entryDx=0;entryDy=0;" parent="1" source="P24lYg7XcosK2m3u0wJf-14" target="P24lYg7XcosK2m3u0wJf-15" edge="1">
          <mxGeometry relative="1" as="geometry">
            <Array as="points">
              <mxPoint x="110" y="80" />
              <mxPoint x="280" y="80" />
            </Array>
          </mxGeometry>
        </mxCell>
        <mxCell id="8x9esafujQY3TYrW2D4K-7" style="edgeStyle=orthogonalEdgeStyle;shape=link;rounded=0;orthogonalLoop=1;jettySize=auto;html=1;exitX=0.25;exitY=1;exitDx=0;exitDy=0;entryX=0.5;entryY=0;entryDx=0;entryDy=0;" parent="1" source="P24lYg7XcosK2m3u0wJf-14" target="8x9esafujQY3TYrW2D4K-2" edge="1">
          <mxGeometry relative="1" as="geometry" />
        </mxCell>
        <mxCell id="P24lYg7XcosK2m3u0wJf-14" value="&lt;font style=&quot;font-size: 19px;&quot;&gt;Airport&lt;/font&gt;" style="whiteSpace=wrap;html=1;align=center;" parent="1" vertex="1">
          <mxGeometry x="60" y="120" width="100" height="40" as="geometry" />
        </mxCell>
        <mxCell id="P24lYg7XcosK2m3u0wJf-15" value="Connects" style="shape=rhombus;perimeter=rhombusPerimeter;whiteSpace=wrap;html=1;align=center;" parent="1" vertex="1">
          <mxGeometry x="220" y="110" width="120" height="60" as="geometry" />
        </mxCell>
        <mxCell id="P24lYg7XcosK2m3u0wJf-25" value="Supervises" style="shape=rhombus;perimeter=rhombusPerimeter;whiteSpace=wrap;html=1;align=center;fontSize=14;" parent="1" vertex="1">
          <mxGeometry x="1110" y="590" width="120" height="60" as="geometry" />
        </mxCell>
        <mxCell id="P24lYg7XcosK2m3u0wJf-29" value="&lt;div&gt;Depends on&lt;/div&gt;" style="shape=rhombus;double=1;perimeter=rhombusPerimeter;whiteSpace=wrap;html=1;align=center;" parent="1" vertex="1">
          <mxGeometry x="650" y="730" width="120" height="60" as="geometry" />
        </mxCell>
        <mxCell id="P24lYg7XcosK2m3u0wJf-31" style="edgeStyle=orthogonalEdgeStyle;rounded=0;orthogonalLoop=1;jettySize=auto;html=1;exitX=0.5;exitY=0;exitDx=0;exitDy=0;entryX=0.5;entryY=1;entryDx=0;entryDy=0;shape=link;" parent="1" source="P24lYg7XcosK2m3u0wJf-30" target="P24lYg7XcosK2m3u0wJf-29" edge="1">
          <mxGeometry relative="1" as="geometry" />
        </mxCell>
        <mxCell id="P24lYg7XcosK2m3u0wJf-30" value="&lt;font style=&quot;font-size: 16px;&quot;&gt;Dependant&lt;/font&gt;" style="shape=ext;margin=3;double=1;whiteSpace=wrap;html=1;align=center;" parent="1" vertex="1">
          <mxGeometry x="660" y="825" width="100" height="40" as="geometry" />
        </mxCell>
        <mxCell id="P24lYg7XcosK2m3u0wJf-33" value="&lt;font style=&quot;font-size: 14px;&quot;&gt;Boarding Flight&lt;/font&gt;" style="shape=rhombus;perimeter=rhombusPerimeter;whiteSpace=wrap;html=1;align=center;" parent="1" vertex="1">
          <mxGeometry x="610" y="110" width="120" height="60" as="geometry" />
        </mxCell>
        <mxCell id="P24lYg7XcosK2m3u0wJf-38" style="edgeStyle=orthogonalEdgeStyle;rounded=0;orthogonalLoop=1;jettySize=auto;html=1;exitX=0;exitY=0.5;exitDx=0;exitDy=0;entryX=1;entryY=0.5;entryDx=0;entryDy=0;shape=link;" parent="1" source="P24lYg7XcosK2m3u0wJf-34" target="P24lYg7XcosK2m3u0wJf-33" edge="1">
          <mxGeometry relative="1" as="geometry" />
        </mxCell>
        <mxCell id="P24lYg7XcosK2m3u0wJf-41" style="edgeStyle=orthogonalEdgeStyle;rounded=0;orthogonalLoop=1;jettySize=auto;html=1;exitX=1;exitY=0.5;exitDx=0;exitDy=0;entryX=0;entryY=0.5;entryDx=0;entryDy=0;" parent="1" source="P24lYg7XcosK2m3u0wJf-34" target="P24lYg7XcosK2m3u0wJf-39" edge="1">
          <mxGeometry relative="1" as="geometry" />
        </mxCell>
        <mxCell id="P24lYg7XcosK2m3u0wJf-95" style="edgeStyle=orthogonalEdgeStyle;rounded=0;orthogonalLoop=1;jettySize=auto;html=1;exitX=0.5;exitY=1;exitDx=0;exitDy=0;entryX=0.5;entryY=0;entryDx=0;entryDy=0;" parent="1" source="P24lYg7XcosK2m3u0wJf-34" target="P24lYg7XcosK2m3u0wJf-94" edge="1">
          <mxGeometry relative="1" as="geometry" />
        </mxCell>
        <mxCell id="P24lYg7XcosK2m3u0wJf-34" value="&lt;font style=&quot;font-size: 19px;&quot;&gt;Passenger&lt;/font&gt;" style="whiteSpace=wrap;html=1;align=center;" parent="1" vertex="1">
          <mxGeometry x="840" y="120" width="100" height="40" as="geometry" />
        </mxCell>
        <mxCell id="P24lYg7XcosK2m3u0wJf-39" value="&lt;font style=&quot;font-size: 16px;&quot;&gt;Luggage&lt;/font&gt;" style="shape=rhombus;double=1;perimeter=rhombusPerimeter;whiteSpace=wrap;html=1;align=center;" parent="1" vertex="1">
          <mxGeometry x="1070" y="110" width="120" height="60" as="geometry" />
        </mxCell>
        <mxCell id="P24lYg7XcosK2m3u0wJf-211" style="edgeStyle=orthogonalEdgeStyle;rounded=0;orthogonalLoop=1;jettySize=auto;html=1;exitX=0.5;exitY=0;exitDx=0;exitDy=0;shape=link;" parent="1" source="P24lYg7XcosK2m3u0wJf-40" target="P24lYg7XcosK2m3u0wJf-39" edge="1">
          <mxGeometry relative="1" as="geometry" />
        </mxCell>
        <mxCell id="P24lYg7XcosK2m3u0wJf-40" value="Baggage" style="shape=ext;margin=3;double=1;whiteSpace=wrap;html=1;align=center;fontSize=18;" parent="1" vertex="1">
          <mxGeometry x="1080" y="220" width="100" height="40" as="geometry" />
        </mxCell>
        <mxCell id="P24lYg7XcosK2m3u0wJf-66" style="edgeStyle=orthogonalEdgeStyle;rounded=0;orthogonalLoop=1;jettySize=auto;html=1;exitX=1;exitY=0;exitDx=0;exitDy=0;entryX=0.25;entryY=1;entryDx=0;entryDy=0;" parent="1" source="P24lYg7XcosK2m3u0wJf-44" target="P24lYg7XcosK2m3u0wJf-2" edge="1">
          <mxGeometry relative="1" as="geometry" />
        </mxCell>
        <mxCell id="P24lYg7XcosK2m3u0wJf-44" value="Flight_Code" style="ellipse;whiteSpace=wrap;html=1;align=center;fontStyle=4;fontSize=15;" parent="1" vertex="1">
          <mxGeometry x="325" y="210" width="100" height="40" as="geometry" />
        </mxCell>
        <mxCell id="P24lYg7XcosK2m3u0wJf-53" value="" style="edgeStyle=orthogonalEdgeStyle;rounded=0;orthogonalLoop=1;jettySize=auto;html=1;" parent="1" source="P24lYg7XcosK2m3u0wJf-45" target="P24lYg7XcosK2m3u0wJf-4" edge="1">
          <mxGeometry relative="1" as="geometry" />
        </mxCell>
        <mxCell id="P24lYg7XcosK2m3u0wJf-45" value="&lt;font style=&quot;font-size: 16px;&quot;&gt;AirplaneID&lt;/font&gt;" style="ellipse;whiteSpace=wrap;html=1;align=center;fontStyle=4;" parent="1" vertex="1">
          <mxGeometry x="220" y="290" width="100" height="40" as="geometry" />
        </mxCell>
        <mxCell id="P24lYg7XcosK2m3u0wJf-52" style="edgeStyle=orthogonalEdgeStyle;rounded=0;orthogonalLoop=1;jettySize=auto;html=1;exitX=1;exitY=1;exitDx=0;exitDy=0;entryX=0;entryY=0.25;entryDx=0;entryDy=0;" parent="1" source="P24lYg7XcosK2m3u0wJf-46" target="P24lYg7XcosK2m3u0wJf-4" edge="1">
          <mxGeometry relative="1" as="geometry" />
        </mxCell>
        <mxCell id="P24lYg7XcosK2m3u0wJf-46" value="&lt;font style=&quot;font-size: 13px;&quot;&gt;Aircraft_Model&lt;/font&gt;" style="ellipse;whiteSpace=wrap;html=1;align=center;fontSize=13;" parent="1" vertex="1">
          <mxGeometry x="80" y="310" width="100" height="40" as="geometry" />
        </mxCell>
        <mxCell id="P24lYg7XcosK2m3u0wJf-50" style="edgeStyle=orthogonalEdgeStyle;rounded=0;orthogonalLoop=1;jettySize=auto;html=1;exitX=1;exitY=0.5;exitDx=0;exitDy=0;entryX=0;entryY=0.5;entryDx=0;entryDy=0;" parent="1" source="P24lYg7XcosK2m3u0wJf-47" target="P24lYg7XcosK2m3u0wJf-4" edge="1">
          <mxGeometry relative="1" as="geometry" />
        </mxCell>
        <mxCell id="P24lYg7XcosK2m3u0wJf-47" value="Flying_Hours" style="ellipse;whiteSpace=wrap;html=1;align=center;fontSize=13;" parent="1" vertex="1">
          <mxGeometry x="70" y="390" width="100" height="40" as="geometry" />
        </mxCell>
        <mxCell id="P24lYg7XcosK2m3u0wJf-54" style="edgeStyle=orthogonalEdgeStyle;rounded=0;orthogonalLoop=1;jettySize=auto;html=1;exitX=0.5;exitY=0;exitDx=0;exitDy=0;entryX=0.5;entryY=1;entryDx=0;entryDy=0;" parent="1" source="P24lYg7XcosK2m3u0wJf-48" target="P24lYg7XcosK2m3u0wJf-4" edge="1">
          <mxGeometry relative="1" as="geometry" />
        </mxCell>
        <mxCell id="P24lYg7XcosK2m3u0wJf-48" value="&lt;span style=&quot;font-size: 13px; font-family: &amp;quot;Times New Roman&amp;quot;, serif; color: rgb(0, 0, 0); background-color: transparent; font-style: normal; font-variant: normal; text-decoration: none; vertical-align: baseline; white-space: pre-wrap;&quot; id=&quot;docs-internal-guid-83ca9e61-7fff-82cf-e5ce-6e94eff7f495&quot;&gt;SeatingCapacity&lt;/span&gt;" style="ellipse;whiteSpace=wrap;html=1;align=center;fontStyle=0;fontSize=13;" parent="1" vertex="1">
          <mxGeometry x="170" y="470" width="100" height="40" as="geometry" />
        </mxCell>
        <mxCell id="P24lYg7XcosK2m3u0wJf-63" style="edgeStyle=orthogonalEdgeStyle;rounded=0;orthogonalLoop=1;jettySize=auto;html=1;exitX=0.5;exitY=1;exitDx=0;exitDy=0;entryX=0.75;entryY=0;entryDx=0;entryDy=0;" parent="1" source="P24lYg7XcosK2m3u0wJf-56" target="P24lYg7XcosK2m3u0wJf-2" edge="1">
          <mxGeometry relative="1" as="geometry" />
        </mxCell>
        <mxCell id="P24lYg7XcosK2m3u0wJf-56" value="&lt;font style=&quot;font-size: 17px;&quot;&gt;Arrival&lt;/font&gt;" style="ellipse;whiteSpace=wrap;html=1;align=center;" parent="1" vertex="1">
          <mxGeometry x="480" y="40" width="100" height="40" as="geometry" />
        </mxCell>
        <mxCell id="P24lYg7XcosK2m3u0wJf-62" style="edgeStyle=orthogonalEdgeStyle;rounded=0;orthogonalLoop=1;jettySize=auto;html=1;exitX=0.5;exitY=1;exitDx=0;exitDy=0;entryX=0.25;entryY=0;entryDx=0;entryDy=0;" parent="1" source="P24lYg7XcosK2m3u0wJf-58" target="P24lYg7XcosK2m3u0wJf-2" edge="1">
          <mxGeometry relative="1" as="geometry" />
        </mxCell>
        <mxCell id="P24lYg7XcosK2m3u0wJf-58" value="&lt;font style=&quot;font-size: 18px;&quot;&gt;Departure&lt;/font&gt;" style="ellipse;whiteSpace=wrap;html=1;align=center;" parent="1" vertex="1">
          <mxGeometry x="325" y="40" width="100" height="40" as="geometry" />
        </mxCell>
        <mxCell id="P24lYg7XcosK2m3u0wJf-64" style="edgeStyle=orthogonalEdgeStyle;rounded=0;orthogonalLoop=1;jettySize=auto;html=1;exitX=0.5;exitY=1;exitDx=0;exitDy=0;entryX=0.5;entryY=0;entryDx=0;entryDy=0;" parent="1" source="P24lYg7XcosK2m3u0wJf-60" target="P24lYg7XcosK2m3u0wJf-2" edge="1">
          <mxGeometry relative="1" as="geometry" />
        </mxCell>
        <mxCell id="P24lYg7XcosK2m3u0wJf-60" value="Duration" style="ellipse;whiteSpace=wrap;html=1;align=center;dashed=1;fontSize=17;" parent="1" vertex="1">
          <mxGeometry x="400" y="-10" width="100" height="40" as="geometry" />
        </mxCell>
        <mxCell id="P24lYg7XcosK2m3u0wJf-68" style="edgeStyle=orthogonalEdgeStyle;rounded=0;orthogonalLoop=1;jettySize=auto;html=1;exitX=0.5;exitY=1;exitDx=0;exitDy=0;entryX=0.5;entryY=0;entryDx=0;entryDy=0;" parent="1" source="P24lYg7XcosK2m3u0wJf-67" target="P24lYg7XcosK2m3u0wJf-34" edge="1">
          <mxGeometry relative="1" as="geometry" />
        </mxCell>
        <mxCell id="P24lYg7XcosK2m3u0wJf-67" value="PID" style="ellipse;whiteSpace=wrap;html=1;align=center;fontStyle=4;fontSize=19;" parent="1" vertex="1">
          <mxGeometry x="790" y="10" width="100" height="40" as="geometry" />
        </mxCell>
        <mxCell id="P24lYg7XcosK2m3u0wJf-70" style="edgeStyle=orthogonalEdgeStyle;rounded=0;orthogonalLoop=1;jettySize=auto;html=1;exitX=0.5;exitY=1;exitDx=0;exitDy=0;entryX=0.25;entryY=0;entryDx=0;entryDy=0;" parent="1" source="P24lYg7XcosK2m3u0wJf-69" target="P24lYg7XcosK2m3u0wJf-34" edge="1">
          <mxGeometry relative="1" as="geometry" />
        </mxCell>
        <mxCell id="P24lYg7XcosK2m3u0wJf-69" value="Phone Number" style="ellipse;shape=doubleEllipse;margin=3;whiteSpace=wrap;html=1;align=center;" parent="1" vertex="1">
          <mxGeometry x="690" y="30" width="100" height="40" as="geometry" />
        </mxCell>
        <mxCell id="P24lYg7XcosK2m3u0wJf-72" style="edgeStyle=orthogonalEdgeStyle;rounded=0;orthogonalLoop=1;jettySize=auto;html=1;exitX=0;exitY=1;exitDx=0;exitDy=0;entryX=0.75;entryY=0;entryDx=0;entryDy=0;" parent="1" source="P24lYg7XcosK2m3u0wJf-71" target="P24lYg7XcosK2m3u0wJf-34" edge="1">
          <mxGeometry relative="1" as="geometry" />
        </mxCell>
        <mxCell id="P24lYg7XcosK2m3u0wJf-71" value="PName" style="ellipse;whiteSpace=wrap;html=1;align=center;" parent="1" vertex="1">
          <mxGeometry x="900" y="30" width="100" height="40" as="geometry" />
        </mxCell>
        <mxCell id="P24lYg7XcosK2m3u0wJf-74" style="edgeStyle=orthogonalEdgeStyle;rounded=0;orthogonalLoop=1;jettySize=auto;html=1;exitX=0.5;exitY=1;exitDx=0;exitDy=0;entryX=0.5;entryY=0;entryDx=0;entryDy=0;" parent="1" source="P24lYg7XcosK2m3u0wJf-73" target="P24lYg7XcosK2m3u0wJf-71" edge="1">
          <mxGeometry relative="1" as="geometry" />
        </mxCell>
        <mxCell id="P24lYg7XcosK2m3u0wJf-73" value="FName" style="ellipse;whiteSpace=wrap;html=1;align=center;fontSize=16;" parent="1" vertex="1">
          <mxGeometry x="850" y="-60" width="100" height="40" as="geometry" />
        </mxCell>
        <mxCell id="P24lYg7XcosK2m3u0wJf-77" style="edgeStyle=orthogonalEdgeStyle;rounded=0;orthogonalLoop=1;jettySize=auto;html=1;exitX=0;exitY=0.5;exitDx=0;exitDy=0;entryX=1;entryY=0.5;entryDx=0;entryDy=0;" parent="1" source="P24lYg7XcosK2m3u0wJf-76" target="P24lYg7XcosK2m3u0wJf-71" edge="1">
          <mxGeometry relative="1" as="geometry" />
        </mxCell>
        <mxCell id="P24lYg7XcosK2m3u0wJf-76" value="LName" style="ellipse;whiteSpace=wrap;html=1;align=center;" parent="1" vertex="1">
          <mxGeometry x="1050" y="30" width="100" height="40" as="geometry" />
        </mxCell>
        <mxCell id="P24lYg7XcosK2m3u0wJf-80" style="edgeStyle=orthogonalEdgeStyle;rounded=0;orthogonalLoop=1;jettySize=auto;html=1;exitX=0.5;exitY=1;exitDx=0;exitDy=0;entryX=1;entryY=0;entryDx=0;entryDy=0;" parent="1" source="P24lYg7XcosK2m3u0wJf-78" target="P24lYg7XcosK2m3u0wJf-71" edge="1">
          <mxGeometry relative="1" as="geometry" />
        </mxCell>
        <mxCell id="P24lYg7XcosK2m3u0wJf-78" value="MName" style="ellipse;whiteSpace=wrap;html=1;align=center;" parent="1" vertex="1">
          <mxGeometry x="970" y="-60" width="100" height="40" as="geometry" />
        </mxCell>
        <mxCell id="P24lYg7XcosK2m3u0wJf-93" style="edgeStyle=orthogonalEdgeStyle;rounded=0;orthogonalLoop=1;jettySize=auto;html=1;exitX=0.5;exitY=0;exitDx=0;exitDy=0;entryX=1;entryY=0.75;entryDx=0;entryDy=0;" parent="1" source="P24lYg7XcosK2m3u0wJf-81" target="P24lYg7XcosK2m3u0wJf-34" edge="1">
          <mxGeometry relative="1" as="geometry" />
        </mxCell>
        <mxCell id="P24lYg7XcosK2m3u0wJf-81" value="BDate" style="ellipse;whiteSpace=wrap;html=1;align=center;" parent="1" vertex="1">
          <mxGeometry x="970" y="190" width="100" height="40" as="geometry" />
        </mxCell>
        <mxCell id="P24lYg7XcosK2m3u0wJf-92" style="edgeStyle=orthogonalEdgeStyle;rounded=0;orthogonalLoop=1;jettySize=auto;html=1;exitX=0.5;exitY=0;exitDx=0;exitDy=0;entryX=0;entryY=0.75;entryDx=0;entryDy=0;" parent="1" source="P24lYg7XcosK2m3u0wJf-87" target="P24lYg7XcosK2m3u0wJf-34" edge="1">
          <mxGeometry relative="1" as="geometry" />
        </mxCell>
        <mxCell id="P24lYg7XcosK2m3u0wJf-87" value="Age" style="ellipse;whiteSpace=wrap;html=1;align=center;dashed=1;fontSize=17;" parent="1" vertex="1">
          <mxGeometry x="710" y="190" width="100" height="40" as="geometry" />
        </mxCell>
        <mxCell id="P24lYg7XcosK2m3u0wJf-98" style="edgeStyle=orthogonalEdgeStyle;rounded=0;orthogonalLoop=1;jettySize=auto;html=1;exitX=0;exitY=1;exitDx=0;exitDy=0;entryX=1;entryY=0;entryDx=0;entryDy=0;" parent="1" source="P24lYg7XcosK2m3u0wJf-94" target="P24lYg7XcosK2m3u0wJf-96" edge="1">
          <mxGeometry relative="1" as="geometry" />
        </mxCell>
        <mxCell id="P24lYg7XcosK2m3u0wJf-99" style="edgeStyle=orthogonalEdgeStyle;rounded=0;orthogonalLoop=1;jettySize=auto;html=1;exitX=1;exitY=1;exitDx=0;exitDy=0;entryX=0;entryY=0;entryDx=0;entryDy=0;" parent="1" source="P24lYg7XcosK2m3u0wJf-94" target="P24lYg7XcosK2m3u0wJf-97" edge="1">
          <mxGeometry relative="1" as="geometry" />
        </mxCell>
        <mxCell id="P24lYg7XcosK2m3u0wJf-94" value="&lt;font style=&quot;font-size: 20px;&quot;&gt;d&lt;/font&gt;" style="ellipse;whiteSpace=wrap;html=1;aspect=fixed;" parent="1" vertex="1">
          <mxGeometry x="870" y="230" width="40" height="40" as="geometry" />
        </mxCell>
        <mxCell id="P24lYg7XcosK2m3u0wJf-96" value="Buisness_class" style="whiteSpace=wrap;html=1;align=center;" parent="1" vertex="1">
          <mxGeometry x="740" y="320" width="100" height="40" as="geometry" />
        </mxCell>
        <mxCell id="P24lYg7XcosK2m3u0wJf-97" value="First_class" style="whiteSpace=wrap;html=1;align=center;" parent="1" vertex="1">
          <mxGeometry x="930" y="320" width="100" height="40" as="geometry" />
        </mxCell>
        <mxCell id="P24lYg7XcosK2m3u0wJf-101" style="edgeStyle=orthogonalEdgeStyle;rounded=0;orthogonalLoop=1;jettySize=auto;html=1;exitX=0.5;exitY=0;exitDx=0;exitDy=0;entryX=0.75;entryY=1;entryDx=0;entryDy=0;" parent="1" source="P24lYg7XcosK2m3u0wJf-100" target="P24lYg7XcosK2m3u0wJf-97" edge="1">
          <mxGeometry relative="1" as="geometry" />
        </mxCell>
        <mxCell id="P24lYg7XcosK2m3u0wJf-100" value="First Class Services" style="ellipse;whiteSpace=wrap;html=1;align=center;" parent="1" vertex="1">
          <mxGeometry x="950" y="390" width="100" height="40" as="geometry" />
        </mxCell>
        <mxCell id="P24lYg7XcosK2m3u0wJf-207" style="edgeStyle=orthogonalEdgeStyle;rounded=0;orthogonalLoop=1;jettySize=auto;html=1;exitX=0.5;exitY=1;exitDx=0;exitDy=0;entryX=0.75;entryY=0;entryDx=0;entryDy=0;" parent="1" source="P24lYg7XcosK2m3u0wJf-102" target="P24lYg7XcosK2m3u0wJf-97" edge="1">
          <mxGeometry relative="1" as="geometry" />
        </mxCell>
        <mxCell id="P24lYg7XcosK2m3u0wJf-102" value="&lt;font style=&quot;font-size: 11px;&quot;&gt;SleepPodAvalibility&lt;/font&gt;" style="ellipse;whiteSpace=wrap;html=1;align=center;fontSize=11;" parent="1" vertex="1">
          <mxGeometry x="940" y="250" width="100" height="40" as="geometry" />
        </mxCell>
        <mxCell id="P24lYg7XcosK2m3u0wJf-206" style="edgeStyle=orthogonalEdgeStyle;rounded=0;orthogonalLoop=1;jettySize=auto;html=1;exitX=0.5;exitY=0;exitDx=0;exitDy=0;entryX=0.25;entryY=1;entryDx=0;entryDy=0;" parent="1" source="P24lYg7XcosK2m3u0wJf-104" target="P24lYg7XcosK2m3u0wJf-97" edge="1">
          <mxGeometry relative="1" as="geometry" />
        </mxCell>
        <mxCell id="P24lYg7XcosK2m3u0wJf-104" value="&lt;font style=&quot;font-size: 10px;&quot;&gt;SleepPodAvalibility&lt;/font&gt;" style="ellipse;whiteSpace=wrap;html=1;align=center;" parent="1" vertex="1">
          <mxGeometry x="870" y="430" width="100" height="40" as="geometry" />
        </mxCell>
        <mxCell id="P24lYg7XcosK2m3u0wJf-107" style="edgeStyle=orthogonalEdgeStyle;rounded=0;orthogonalLoop=1;jettySize=auto;html=1;exitX=0.5;exitY=0;exitDx=0;exitDy=0;entryX=0.25;entryY=1;entryDx=0;entryDy=0;" parent="1" source="P24lYg7XcosK2m3u0wJf-106" target="P24lYg7XcosK2m3u0wJf-96" edge="1">
          <mxGeometry relative="1" as="geometry">
            <Array as="points">
              <mxPoint x="710" y="380" />
              <mxPoint x="765" y="380" />
            </Array>
          </mxGeometry>
        </mxCell>
        <mxCell id="P24lYg7XcosK2m3u0wJf-106" value="BuisnessClass Services" style="ellipse;whiteSpace=wrap;html=1;align=center;" parent="1" vertex="1">
          <mxGeometry x="660" y="390" width="100" height="40" as="geometry" />
        </mxCell>
        <mxCell id="P24lYg7XcosK2m3u0wJf-110" style="edgeStyle=orthogonalEdgeStyle;rounded=0;orthogonalLoop=1;jettySize=auto;html=1;exitX=1;exitY=0.5;exitDx=0;exitDy=0;entryX=0;entryY=0.5;entryDx=0;entryDy=0;" parent="1" source="P24lYg7XcosK2m3u0wJf-108" target="P24lYg7XcosK2m3u0wJf-96" edge="1">
          <mxGeometry relative="1" as="geometry" />
        </mxCell>
        <mxCell id="P24lYg7XcosK2m3u0wJf-108" value="&lt;font style=&quot;font-size: 11px;&quot;&gt;Buisness Lounge Access&lt;/font&gt;" style="ellipse;whiteSpace=wrap;html=1;align=center;fontStyle=0;" parent="1" vertex="1">
          <mxGeometry x="580" y="320" width="100" height="40" as="geometry" />
        </mxCell>
        <mxCell id="P24lYg7XcosK2m3u0wJf-112" style="edgeStyle=orthogonalEdgeStyle;rounded=0;orthogonalLoop=1;jettySize=auto;html=1;exitX=0.5;exitY=0;exitDx=0;exitDy=0;entryX=0.75;entryY=1;entryDx=0;entryDy=0;" parent="1" source="P24lYg7XcosK2m3u0wJf-111" target="P24lYg7XcosK2m3u0wJf-96" edge="1">
          <mxGeometry relative="1" as="geometry" />
        </mxCell>
        <mxCell id="P24lYg7XcosK2m3u0wJf-111" value="Priority Boarding" style="ellipse;whiteSpace=wrap;html=1;align=center;" parent="1" vertex="1">
          <mxGeometry x="770" y="400" width="100" height="40" as="geometry" />
        </mxCell>
        <mxCell id="P24lYg7XcosK2m3u0wJf-115" style="edgeStyle=orthogonalEdgeStyle;rounded=0;orthogonalLoop=1;jettySize=auto;html=1;exitX=1;exitY=0.5;exitDx=0;exitDy=0;entryX=0.5;entryY=0;entryDx=0;entryDy=0;" parent="1" source="P24lYg7XcosK2m3u0wJf-113" target="P24lYg7XcosK2m3u0wJf-96" edge="1">
          <mxGeometry relative="1" as="geometry" />
        </mxCell>
        <mxCell id="P24lYg7XcosK2m3u0wJf-113" value="WorkStation Avalibilty" style="ellipse;whiteSpace=wrap;html=1;align=center;" parent="1" vertex="1">
          <mxGeometry x="640" y="260" width="100" height="40" as="geometry" />
        </mxCell>
        <mxCell id="P24lYg7XcosK2m3u0wJf-121" style="edgeStyle=orthogonalEdgeStyle;rounded=0;orthogonalLoop=1;jettySize=auto;html=1;exitX=1;exitY=0.5;exitDx=0;exitDy=0;entryX=0;entryY=0.5;entryDx=0;entryDy=0;" parent="1" source="P24lYg7XcosK2m3u0wJf-118" target="P24lYg7XcosK2m3u0wJf-30" edge="1">
          <mxGeometry relative="1" as="geometry" />
        </mxCell>
        <mxCell id="P24lYg7XcosK2m3u0wJf-118" value="Name" style="ellipse;whiteSpace=wrap;html=1;align=center;fontStyle=6;fontSize=19;" parent="1" vertex="1">
          <mxGeometry x="530" y="825" width="100" height="40" as="geometry" />
        </mxCell>
        <mxCell id="P24lYg7XcosK2m3u0wJf-124" style="edgeStyle=orthogonalEdgeStyle;rounded=0;orthogonalLoop=1;jettySize=auto;html=1;exitX=0.5;exitY=0;exitDx=0;exitDy=0;entryX=0.5;entryY=1;entryDx=0;entryDy=0;" parent="1" source="P24lYg7XcosK2m3u0wJf-119" target="P24lYg7XcosK2m3u0wJf-30" edge="1">
          <mxGeometry relative="1" as="geometry" />
        </mxCell>
        <mxCell id="P24lYg7XcosK2m3u0wJf-119" value="Relationship" style="ellipse;whiteSpace=wrap;html=1;align=center;fontSize=16;" parent="1" vertex="1">
          <mxGeometry x="660" y="890" width="100" height="40" as="geometry" />
        </mxCell>
        <mxCell id="P24lYg7XcosK2m3u0wJf-123" style="edgeStyle=orthogonalEdgeStyle;rounded=0;orthogonalLoop=1;jettySize=auto;html=1;exitX=0;exitY=0.5;exitDx=0;exitDy=0;entryX=1;entryY=0.5;entryDx=0;entryDy=0;" parent="1" source="P24lYg7XcosK2m3u0wJf-122" target="P24lYg7XcosK2m3u0wJf-30" edge="1">
          <mxGeometry relative="1" as="geometry" />
        </mxCell>
        <mxCell id="P24lYg7XcosK2m3u0wJf-122" value="DOB" style="ellipse;whiteSpace=wrap;html=1;align=center;fontSize=19;" parent="1" vertex="1">
          <mxGeometry x="800" y="825" width="100" height="40" as="geometry" />
        </mxCell>
        <mxCell id="P24lYg7XcosK2m3u0wJf-163" style="edgeStyle=orthogonalEdgeStyle;rounded=0;orthogonalLoop=1;jettySize=auto;html=1;exitX=1;exitY=0.5;exitDx=0;exitDy=0;" parent="1" source="P24lYg7XcosK2m3u0wJf-131" target="P24lYg7XcosK2m3u0wJf-5" edge="1">
          <mxGeometry relative="1" as="geometry" />
        </mxCell>
        <mxCell id="P24lYg7XcosK2m3u0wJf-131" value="Emp_ID" style="ellipse;whiteSpace=wrap;html=1;align=center;fontStyle=4;" parent="1" vertex="1">
          <mxGeometry x="670" y="490" width="100" height="40" as="geometry" />
        </mxCell>
        <mxCell id="P24lYg7XcosK2m3u0wJf-133" value="Phone_number" style="ellipse;whiteSpace=wrap;html=1;align=center;" parent="1" vertex="1">
          <mxGeometry x="860" y="670" width="100" height="40" as="geometry" />
        </mxCell>
        <mxCell id="P24lYg7XcosK2m3u0wJf-136" style="edgeStyle=orthogonalEdgeStyle;rounded=0;orthogonalLoop=1;jettySize=auto;html=1;exitX=1;exitY=0.5;exitDx=0;exitDy=0;entryX=0;entryY=1;entryDx=0;entryDy=0;" parent="1" source="P24lYg7XcosK2m3u0wJf-135" target="P24lYg7XcosK2m3u0wJf-5" edge="1">
          <mxGeometry relative="1" as="geometry" />
        </mxCell>
        <mxCell id="P24lYg7XcosK2m3u0wJf-135" value="EName" style="ellipse;whiteSpace=wrap;html=1;align=center;fontSize=19;" parent="1" vertex="1">
          <mxGeometry x="570" y="670" width="100" height="40" as="geometry" />
        </mxCell>
        <mxCell id="P24lYg7XcosK2m3u0wJf-139" style="edgeStyle=orthogonalEdgeStyle;rounded=0;orthogonalLoop=1;jettySize=auto;html=1;exitX=1;exitY=0.5;exitDx=0;exitDy=0;entryX=0;entryY=0.5;entryDx=0;entryDy=0;" parent="1" source="P24lYg7XcosK2m3u0wJf-137" target="P24lYg7XcosK2m3u0wJf-135" edge="1">
          <mxGeometry relative="1" as="geometry" />
        </mxCell>
        <mxCell id="P24lYg7XcosK2m3u0wJf-137" value="FName" style="ellipse;whiteSpace=wrap;html=1;align=center;fontSize=19;" parent="1" vertex="1">
          <mxGeometry x="410" y="670" width="100" height="40" as="geometry" />
        </mxCell>
        <mxCell id="P24lYg7XcosK2m3u0wJf-141" style="edgeStyle=orthogonalEdgeStyle;rounded=0;orthogonalLoop=1;jettySize=auto;html=1;exitX=0.5;exitY=0;exitDx=0;exitDy=0;entryX=0.5;entryY=1;entryDx=0;entryDy=0;" parent="1" source="P24lYg7XcosK2m3u0wJf-140" target="P24lYg7XcosK2m3u0wJf-135" edge="1">
          <mxGeometry relative="1" as="geometry" />
        </mxCell>
        <mxCell id="P24lYg7XcosK2m3u0wJf-140" value="LName" style="ellipse;whiteSpace=wrap;html=1;align=center;fontSize=19;" parent="1" vertex="1">
          <mxGeometry x="520" y="750" width="100" height="40" as="geometry" />
        </mxCell>
        <mxCell id="P24lYg7XcosK2m3u0wJf-142" value="MName" style="ellipse;whiteSpace=wrap;html=1;align=center;fontSize=19;" parent="1" vertex="1">
          <mxGeometry x="420" y="720" width="100" height="40" as="geometry" />
        </mxCell>
        <mxCell id="P24lYg7XcosK2m3u0wJf-143" style="edgeStyle=orthogonalEdgeStyle;rounded=0;orthogonalLoop=1;jettySize=auto;html=1;exitX=1;exitY=0;exitDx=0;exitDy=0;entryX=0;entryY=0.75;entryDx=0;entryDy=0;entryPerimeter=0;" parent="1" source="P24lYg7XcosK2m3u0wJf-142" target="P24lYg7XcosK2m3u0wJf-135" edge="1">
          <mxGeometry relative="1" as="geometry" />
        </mxCell>
        <mxCell id="P24lYg7XcosK2m3u0wJf-159" style="edgeStyle=orthogonalEdgeStyle;rounded=0;orthogonalLoop=1;jettySize=auto;html=1;exitX=0;exitY=0.5;exitDx=0;exitDy=0;entryX=0.75;entryY=0;entryDx=0;entryDy=0;" parent="1" source="P24lYg7XcosK2m3u0wJf-144" target="P24lYg7XcosK2m3u0wJf-5" edge="1">
          <mxGeometry relative="1" as="geometry" />
        </mxCell>
        <mxCell id="P24lYg7XcosK2m3u0wJf-144" value="JobType" style="ellipse;whiteSpace=wrap;html=1;align=center;" parent="1" vertex="1">
          <mxGeometry x="850" y="490" width="100" height="40" as="geometry" />
        </mxCell>
        <mxCell id="P24lYg7XcosK2m3u0wJf-150" value="Works_For" style="shape=rhombus;perimeter=rhombusPerimeter;whiteSpace=wrap;html=1;align=center;" parent="1" vertex="1">
          <mxGeometry x="460" y="590" width="120" height="60" as="geometry" />
        </mxCell>
        <mxCell id="P24lYg7XcosK2m3u0wJf-160" style="edgeStyle=orthogonalEdgeStyle;rounded=0;orthogonalLoop=1;jettySize=auto;html=1;exitX=0;exitY=0;exitDx=0;exitDy=0;entryX=0.872;entryY=1.025;entryDx=0;entryDy=0;entryPerimeter=0;" parent="1" source="P24lYg7XcosK2m3u0wJf-133" target="P24lYg7XcosK2m3u0wJf-5" edge="1">
          <mxGeometry relative="1" as="geometry" />
        </mxCell>
        <mxCell id="P24lYg7XcosK2m3u0wJf-162" style="edgeStyle=orthogonalEdgeStyle;rounded=0;orthogonalLoop=1;jettySize=auto;html=1;exitX=0.5;exitY=0;exitDx=0;exitDy=0;entryX=0.5;entryY=1;entryDx=0;entryDy=0;" parent="1" source="P24lYg7XcosK2m3u0wJf-161" target="P24lYg7XcosK2m3u0wJf-5" edge="1">
          <mxGeometry relative="1" as="geometry" />
        </mxCell>
        <mxCell id="P24lYg7XcosK2m3u0wJf-161" value="BData" style="ellipse;whiteSpace=wrap;html=1;align=center;fontSize=19;" parent="1" vertex="1">
          <mxGeometry x="780" y="705" width="100" height="40" as="geometry" />
        </mxCell>
        <mxCell id="P24lYg7XcosK2m3u0wJf-165" style="edgeStyle=orthogonalEdgeStyle;rounded=0;orthogonalLoop=1;jettySize=auto;html=1;exitX=0;exitY=0.5;exitDx=0;exitDy=0;entryX=1;entryY=0;entryDx=0;entryDy=0;" parent="1" source="P24lYg7XcosK2m3u0wJf-164" target="P24lYg7XcosK2m3u0wJf-5" edge="1">
          <mxGeometry relative="1" as="geometry" />
        </mxCell>
        <mxCell id="P24lYg7XcosK2m3u0wJf-164" value="Age" style="ellipse;whiteSpace=wrap;html=1;align=center;dashed=1;" parent="1" vertex="1">
          <mxGeometry x="880" y="540" width="100" height="40" as="geometry" />
        </mxCell>
        <mxCell id="P24lYg7XcosK2m3u0wJf-167" style="edgeStyle=orthogonalEdgeStyle;rounded=0;orthogonalLoop=1;jettySize=auto;html=1;exitX=1;exitY=1;exitDx=0;exitDy=0;entryX=0.25;entryY=0;entryDx=0;entryDy=0;" parent="1" source="P24lYg7XcosK2m3u0wJf-166" target="P24lYg7XcosK2m3u0wJf-14" edge="1">
          <mxGeometry relative="1" as="geometry" />
        </mxCell>
        <mxCell id="P24lYg7XcosK2m3u0wJf-166" value="AP_Name" style="ellipse;whiteSpace=wrap;html=1;align=center;fontStyle=4;fontSize=16;" parent="1" vertex="1">
          <mxGeometry x="-30" y="30" width="100" height="40" as="geometry" />
        </mxCell>
        <mxCell id="P24lYg7XcosK2m3u0wJf-169" style="edgeStyle=orthogonalEdgeStyle;rounded=0;orthogonalLoop=1;jettySize=auto;html=1;exitX=1;exitY=0.5;exitDx=0;exitDy=0;entryX=0;entryY=0.5;entryDx=0;entryDy=0;" parent="1" source="P24lYg7XcosK2m3u0wJf-168" target="P24lYg7XcosK2m3u0wJf-14" edge="1">
          <mxGeometry relative="1" as="geometry" />
        </mxCell>
        <mxCell id="P24lYg7XcosK2m3u0wJf-168" value="City" style="ellipse;whiteSpace=wrap;html=1;align=center;fontSize=21;" parent="1" vertex="1">
          <mxGeometry x="-120" y="120" width="100" height="40" as="geometry" />
        </mxCell>
        <mxCell id="8x9esafujQY3TYrW2D4K-6" style="edgeStyle=orthogonalEdgeStyle;rounded=0;orthogonalLoop=1;jettySize=auto;html=1;exitX=0.5;exitY=0;exitDx=0;exitDy=0;entryX=0;entryY=0.75;entryDx=0;entryDy=0;" parent="1" source="P24lYg7XcosK2m3u0wJf-170" target="P24lYg7XcosK2m3u0wJf-14" edge="1">
          <mxGeometry relative="1" as="geometry" />
        </mxCell>
        <mxCell id="P24lYg7XcosK2m3u0wJf-170" value="City_Name" style="ellipse;whiteSpace=wrap;html=1;align=center;fontSize=16;" parent="1" vertex="1">
          <mxGeometry x="-70" y="200" width="100" height="40" as="geometry" />
        </mxCell>
        <mxCell id="P24lYg7XcosK2m3u0wJf-175" style="edgeStyle=orthogonalEdgeStyle;rounded=0;orthogonalLoop=1;jettySize=auto;html=1;exitX=1;exitY=0.5;exitDx=0;exitDy=0;entryX=0;entryY=0.5;entryDx=0;entryDy=0;" parent="1" source="P24lYg7XcosK2m3u0wJf-172" target="P24lYg7XcosK2m3u0wJf-6" edge="1">
          <mxGeometry relative="1" as="geometry" />
        </mxCell>
        <mxCell id="P24lYg7XcosK2m3u0wJf-172" value="Airline_Name" style="ellipse;whiteSpace=wrap;html=1;align=center;fontStyle=4;fontSize=14;" parent="1" vertex="1">
          <mxGeometry x="20" y="600" width="100" height="40" as="geometry" />
        </mxCell>
        <mxCell id="P24lYg7XcosK2m3u0wJf-174" style="edgeStyle=orthogonalEdgeStyle;rounded=0;orthogonalLoop=1;jettySize=auto;html=1;exitX=1;exitY=0.5;exitDx=0;exitDy=0;entryX=0.5;entryY=1;entryDx=0;entryDy=0;" parent="1" source="P24lYg7XcosK2m3u0wJf-173" target="P24lYg7XcosK2m3u0wJf-6" edge="1">
          <mxGeometry relative="1" as="geometry" />
        </mxCell>
        <mxCell id="P24lYg7XcosK2m3u0wJf-173" value="AirlineID" style="ellipse;whiteSpace=wrap;html=1;align=center;fontSize=16;" parent="1" vertex="1">
          <mxGeometry x="90" y="670" width="100" height="40" as="geometry" />
        </mxCell>
        <mxCell id="P24lYg7XcosK2m3u0wJf-205" value="" style="edgeStyle=orthogonalEdgeStyle;rounded=0;orthogonalLoop=1;jettySize=auto;html=1;" parent="1" source="P24lYg7XcosK2m3u0wJf-176" target="P24lYg7XcosK2m3u0wJf-40" edge="1">
          <mxGeometry relative="1" as="geometry" />
        </mxCell>
        <mxCell id="P24lYg7XcosK2m3u0wJf-176" value="BaggageID" style="ellipse;whiteSpace=wrap;html=1;align=center;fontStyle=6;horizontal=1;verticalAlign=middle;fontSize=15;" parent="1" vertex="1">
          <mxGeometry x="1030" y="290" width="100" height="40" as="geometry" />
        </mxCell>
        <mxCell id="P24lYg7XcosK2m3u0wJf-209" style="edgeStyle=orthogonalEdgeStyle;rounded=0;orthogonalLoop=1;jettySize=auto;html=1;exitX=0.5;exitY=0;exitDx=0;exitDy=0;entryX=0.75;entryY=1;entryDx=0;entryDy=0;" parent="1" source="P24lYg7XcosK2m3u0wJf-178" target="P24lYg7XcosK2m3u0wJf-40" edge="1">
          <mxGeometry relative="1" as="geometry" />
        </mxCell>
        <mxCell id="P24lYg7XcosK2m3u0wJf-178" value="Weight" style="ellipse;whiteSpace=wrap;html=1;align=center;fontSize=17;" parent="1" vertex="1">
          <mxGeometry x="1090" y="340" width="100" height="40" as="geometry" />
        </mxCell>
        <mxCell id="P24lYg7XcosK2m3u0wJf-187" value="(1,1)" style="text;html=1;align=center;verticalAlign=middle;whiteSpace=wrap;rounded=0;" parent="1" vertex="1">
          <mxGeometry x="580" y="640" width="60" height="30" as="geometry" />
        </mxCell>
        <mxCell id="P24lYg7XcosK2m3u0wJf-188" value="(1,M)" style="text;html=1;align=center;verticalAlign=middle;whiteSpace=wrap;rounded=0;" parent="1" vertex="1">
          <mxGeometry x="400" y="640" width="60" height="30" as="geometry" />
        </mxCell>
        <mxCell id="P24lYg7XcosK2m3u0wJf-189" value="(0,N)" style="text;html=1;align=center;verticalAlign=middle;whiteSpace=wrap;rounded=0;" parent="1" vertex="1">
          <mxGeometry x="1010" y="110" width="60" height="30" as="geometry" />
        </mxCell>
        <mxCell id="P24lYg7XcosK2m3u0wJf-190" value="(1,1)" style="text;html=1;align=center;verticalAlign=middle;whiteSpace=wrap;rounded=0;" parent="1" vertex="1">
          <mxGeometry x="1120" y="170" width="60" height="30" as="geometry" />
        </mxCell>
        <mxCell id="P24lYg7XcosK2m3u0wJf-191" value="(0,N)" style="text;html=1;align=center;verticalAlign=middle;whiteSpace=wrap;rounded=0;" parent="1" vertex="1">
          <mxGeometry x="710" y="710" width="60" height="30" as="geometry" />
        </mxCell>
        <mxCell id="P24lYg7XcosK2m3u0wJf-192" value="(1,1)" style="text;html=1;align=center;verticalAlign=middle;whiteSpace=wrap;rounded=0;" parent="1" vertex="1">
          <mxGeometry x="700" y="790" width="60" height="30" as="geometry" />
        </mxCell>
        <mxCell id="P24lYg7XcosK2m3u0wJf-193" value="(1,1)" style="text;html=1;align=center;verticalAlign=middle;whiteSpace=wrap;rounded=0;" parent="1" vertex="1">
          <mxGeometry x="440" y="350" width="60" height="30" as="geometry" />
        </mxCell>
        <mxCell id="P24lYg7XcosK2m3u0wJf-194" value="(0,P)" style="text;html=1;align=center;verticalAlign=middle;whiteSpace=wrap;rounded=0;" parent="1" vertex="1">
          <mxGeometry x="330" y="380" width="60" height="30" as="geometry" />
        </mxCell>
        <mxCell id="P24lYg7XcosK2m3u0wJf-195" value="(0,Q)" style="text;html=1;align=center;verticalAlign=middle;whiteSpace=wrap;rounded=0;" parent="1" vertex="1">
          <mxGeometry x="510" y="380" width="60" height="30" as="geometry" />
        </mxCell>
        <mxCell id="P24lYg7XcosK2m3u0wJf-196" value="(0,R)" style="text;html=1;align=center;verticalAlign=middle;whiteSpace=wrap;rounded=0;" parent="1" vertex="1">
          <mxGeometry x="440" y="450" width="60" height="30" as="geometry" />
        </mxCell>
        <mxCell id="P24lYg7XcosK2m3u0wJf-197" value="(0,N)" style="text;html=1;align=center;verticalAlign=middle;whiteSpace=wrap;rounded=0;" parent="1" vertex="1">
          <mxGeometry x="1090" y="640" width="60" height="30" as="geometry" />
        </mxCell>
        <mxCell id="P24lYg7XcosK2m3u0wJf-198" value="(1,1)" style="text;html=1;align=center;verticalAlign=middle;whiteSpace=wrap;rounded=0;" parent="1" vertex="1">
          <mxGeometry x="1090" y="570" width="60" height="30" as="geometry" />
        </mxCell>
        <mxCell id="P24lYg7XcosK2m3u0wJf-199" value="(0,N)" style="text;html=1;align=center;verticalAlign=middle;whiteSpace=wrap;rounded=0;" parent="1" vertex="1">
          <mxGeometry x="550" y="110" width="60" height="30" as="geometry" />
        </mxCell>
        <mxCell id="P24lYg7XcosK2m3u0wJf-200" value="(1,1)" style="text;html=1;align=center;verticalAlign=middle;whiteSpace=wrap;rounded=0;" parent="1" vertex="1">
          <mxGeometry x="740" y="110" width="60" height="30" as="geometry" />
        </mxCell>
        <mxCell id="P24lYg7XcosK2m3u0wJf-201" value="(1,1)" style="text;html=1;align=center;verticalAlign=middle;whiteSpace=wrap;rounded=0;" parent="1" vertex="1">
          <mxGeometry x="330" y="110" width="60" height="30" as="geometry" />
        </mxCell>
        <mxCell id="P24lYg7XcosK2m3u0wJf-202" value="(0,P)" style="text;html=1;align=center;verticalAlign=middle;whiteSpace=wrap;rounded=0;" parent="1" vertex="1">
          <mxGeometry x="230" y="170" width="60" height="30" as="geometry" />
        </mxCell>
        <mxCell id="P24lYg7XcosK2m3u0wJf-203" value="(0,Q)" style="text;html=1;align=center;verticalAlign=middle;whiteSpace=wrap;rounded=0;" parent="1" vertex="1">
          <mxGeometry x="230" y="80" width="60" height="30" as="geometry" />
        </mxCell>
        <mxCell id="8x9esafujQY3TYrW2D4K-2" value="Operates" style="shape=rhombus;perimeter=rhombusPerimeter;whiteSpace=wrap;html=1;align=center;" parent="1" vertex="1">
          <mxGeometry x="-90" y="380" width="120" height="60" as="geometry" />
        </mxCell>
        <mxCell id="8x9esafujQY3TYrW2D4K-4" value="&lt;font style=&quot;font-size: 20px;&quot;&gt;(1,N)&lt;/font&gt;" style="text;whiteSpace=wrap;html=1;" parent="1" vertex="1">
          <mxGeometry x="-20" y="430" width="50" height="40" as="geometry" />
        </mxCell>
        <mxCell id="8x9esafujQY3TYrW2D4K-8" value="&lt;font style=&quot;font-size: 20px;&quot;&gt;(1,M)&lt;/font&gt;" style="text;whiteSpace=wrap;html=1;" parent="1" vertex="1">
          <mxGeometry x="-20" y="340" width="50" height="40" as="geometry" />
        </mxCell>
      </root>
    </mxGraphModel>
  </diagram>
</mxfile>
